<?xml version="1.0" encoding="utf-8"?>
<!-- Generator: Adobe Illustrator 24.2.0, SVG Export Plug-In . SVG Version: 6.00 Build 0)  -->
<svg version="1.1" id="Layer_1" xmlns="http://www.w3.org/2000/svg" xmlns:xlink="http://www.w3.org/1999/xlink" x="0px" y="0px"
	 viewBox="0 0 383.8 69.8" style="enable-background:new 0 0 383.8 69.8;" xml:space="preserve">
<style type="text/css">
	.st0{enable-background:new    ;}
	.st1{fill:#191919;}
</style>
<g class="st0">
	<path class="st1" d="M60.3,43.8c-1.6,3.7-3.9,6.9-6.8,9.6l7.8,9.9l-5.7,4.3l-8-10.2c-4.3,2.3-9.1,3.4-14.4,3.4
		c-5.6,0-10.7-1.3-15.2-3.8c-4.5-2.5-8-6-10.6-10.5c-2.6-4.5-3.9-9.5-3.9-15.1c0-5.6,1.3-10.6,3.8-15C9.9,12,13.5,8.5,18,6
		c4.5-2.5,9.6-3.8,15.2-3.8S43.8,3.5,48.3,6c4.5,2.5,8,6,10.6,10.5c2.6,4.5,3.9,9.5,3.9,15C62.7,36,61.9,40,60.3,43.8z M43.3,51.9
		L33,39.1l5.7-4.4l10.4,13.1c2-2,3.5-4.4,4.6-7.2c1.1-2.8,1.6-5.8,1.6-9c0-4.3-1-8.2-2.9-11.7c-1.9-3.4-4.6-6.1-7.9-8
		C41.2,9.9,37.4,9,33.1,9c-4.2,0-8,1-11.4,2.9c-3.4,1.9-6,4.6-7.9,8c-1.9,3.4-2.9,7.3-2.9,11.7c0,4.3,1,8.2,2.9,11.7
		c1.9,3.4,4.6,6.1,8,8.1c3.4,1.9,7.2,2.9,11.4,2.9C36.8,54.2,40.2,53.4,43.3,51.9z"/>
	<path class="st1" d="M99.8,59.6v-6.1c-1,1.8-2.7,3.5-5.1,4.9c-2.4,1.4-5.2,2.2-8.5,2.2c-3.1,0-5.9-0.7-8.4-2.2
		c-2.5-1.4-4.4-3.5-5.7-6.1c-1.4-2.6-2-5.7-2-9.3V19.6h7.2v22.2c0,4,0.9,7.1,2.8,9.3c1.8,2.2,4.4,3.3,7.7,3.3c2.3,0,4.3-0.6,6.2-1.9
		s3.3-3,4.3-5.1c1-2.1,1.6-4.5,1.6-6.9V19.6h7.2v40H99.8z"/>
	<path class="st1" d="M146.3,21.3c3.1,1.8,5.6,4.3,7.3,7.5c1.8,3.2,2.6,6.8,2.6,10.7c0,4-0.9,7.5-2.6,10.7c-1.8,3.2-4.2,5.7-7.3,7.5
		c-3.1,1.8-6.6,2.7-10.5,2.7c-3.9,0-7.4-0.9-10.5-2.7c-3.1-1.8-5.5-4.3-7.3-7.5c-1.8-3.2-2.7-6.8-2.7-10.7c0-4,0.9-7.5,2.7-10.7
		c1.8-3.2,4.2-5.7,7.3-7.5c3.1-1.8,6.6-2.7,10.5-2.7C139.7,18.6,143.2,19.5,146.3,21.3z M128.8,26.9c-2,1.3-3.6,3-4.8,5.3
		c-1.1,2.2-1.7,4.7-1.7,7.5c0,2.8,0.6,5.2,1.7,7.5c1.1,2.2,2.7,4,4.8,5.3c2,1.3,4.4,1.9,7,1.9c2.6,0,4.9-0.6,6.9-1.9
		c2.1-1.3,3.6-3,4.8-5.3c1.1-2.2,1.7-4.7,1.7-7.5c0-2.8-0.6-5.2-1.7-7.5c-1.1-2.2-2.7-4-4.8-5.3c-2.1-1.3-4.4-1.9-6.9-1.9
		C133.2,25,130.9,25.6,128.8,26.9z"/>
	<path class="st1" d="M179.2,41.3l-7.9,8.3v10h-7.2V1.8h7.2V41l20-21.4h8.5l-16,16.9l17.6,23.2h-8.5L179.2,41.3z"/>
	<path class="st1" d="M221.3,41.3l-7.9,8.3v10h-7.2V1.8h7.2V41l20-21.4h8.5l-16,16.9l17.6,23.2h-8.5L221.3,41.3z"/>
	<path class="st1" d="M253.7,57.9c-3-1.8-5.4-4.3-7.1-7.6c-1.7-3.2-2.6-6.8-2.6-10.7c0-3.9,0.9-7.5,2.6-10.7
		c1.7-3.2,4.1-5.7,7.1-7.6c3-1.8,6.4-2.7,10.1-2.7c3.4,0,6.3,0.7,8.8,2c2.5,1.4,4.3,3,5.4,4.9v-6h7.2v40H278v-5.9
		c-1.1,1.9-2.9,3.5-5.4,4.9c-2.5,1.4-5.4,2-8.8,2C260.1,60.6,256.7,59.7,253.7,57.9z M271.6,52.3c2.1-1.3,3.7-3,4.9-5.3
		c1.2-2.2,1.8-4.7,1.8-7.5c0-2.8-0.6-5.2-1.8-7.5c-1.2-2.2-2.8-4-4.9-5.3c-2.1-1.3-4.4-1.9-7.1-1.9c-2.6,0-4.9,0.6-7,1.9
		s-3.6,3-4.7,5.3c-1.1,2.2-1.7,4.7-1.7,7.5c0,2.8,0.6,5.3,1.7,7.5c1.1,2.2,2.7,4,4.7,5.3c2,1.3,4.4,1.9,7,1.9
		C267.1,54.3,269.5,53.6,271.6,52.3z"/>
	<path class="st1" d="M318.4,35.9h-24.5v-6.3h24.5V35.9z"/>
	<path class="st1" d="M334.7,59.6h-7.4V3.6h7.4V59.6z"/>
	<path class="st1" d="M352.6,19.6v6.1c1-1.8,2.7-3.5,5.1-4.9c2.4-1.4,5.2-2.2,8.5-2.2c3.1,0,5.9,0.7,8.4,2.2
		c2.5,1.4,4.4,3.5,5.7,6.1c1.4,2.6,2,5.7,2,9.3v23.4h-7.2V37.5c0-4-0.9-7.1-2.8-9.3c-1.8-2.2-4.4-3.3-7.7-3.3
		c-2.3,0-4.3,0.6-6.2,1.9c-1.8,1.3-3.3,3-4.3,5.1s-1.6,4.5-1.6,6.9v20.7h-7.2v-40H352.6z"/>
</g>
<text transform="matrix(1 0 0 1 0 172.8298)" style="fill:none;stroke:#000000;stroke-miterlimit:10; font-family:'GmarketSansTTFMedium'; font-size:70px;">SEOHEE’S</text>
</svg>
