<svg width="90" height="24" viewBox="0 0 90 24" fill="none" xmlns="http://www.w3.org/2000/svg">
<path d="M32.5471 19.0142C29.3372 19.2908 27.7026 17.5365 27.4894 15.9713C31.9506 16.8686 38.2405 15.1022 38.2405 10.7557C38.2405 7.97333 35.9279 6.44134 32.3338 6.44134C26.4986 6.44134 23.6649 10.3785 23.6649 14.6385C23.6649 18.8985 26.3276 22.1325 31.9073 22.057C35.6251 22.0067 38.0172 20.2826 38.4085 19.9929L37.0042 17.3242C36.1331 17.9308 34.7047 18.8281 32.5471 19.0142ZM32.3157 9.30917C33.7874 9.30917 34.753 9.91574 34.753 10.8432C34.753 13.7372 29.5746 13.9021 27.3445 13.2483C27.4864 11.1621 29.134 9.30917 32.3157 9.30917ZM48.4213 19.0142C45.2114 19.2908 43.5768 17.5365 43.3636 15.9713C47.8248 16.8686 54.1147 15.1022 54.1147 10.7557C54.1147 7.97333 51.8021 6.44134 48.208 6.44134C42.3728 6.44134 39.5391 10.3785 39.5391 14.6385C39.5391 18.8985 42.2017 22.1325 47.7815 22.057C51.4993 22.0067 53.8914 20.2826 54.2827 19.9929L52.8784 17.3242C52.0073 17.9308 50.5789 18.8281 48.4213 19.0142ZM48.1899 9.30917C49.6615 9.30917 50.6272 9.91574 50.6272 10.8432C50.6272 13.7372 45.4488 13.9021 43.2187 13.2483C43.3605 11.1621 45.0082 9.30917 48.1899 9.30917ZM85 19.3964C83.3966 20.8459 81.1937 22.059 79.2774 22.059C76.0243 22.059 74.4994 18.8874 74.4994 13.2322C74.4994 11.8903 74.5416 10.5505 74.606 9.28604C72.9342 9.30515 71.8739 9.19651 71.8739 9.19651V6.44234C71.8739 6.44234 73.0167 6.57613 74.784 6.54495C74.9963 3.84308 75.2487 1.94092 75.2487 1.94092L78.5431 2.24973C78.5431 2.24973 78.3198 3.97385 78.1317 6.28744C80.0077 5.99975 81.765 5.44147 81.765 5.44147L82.4943 8.16244C82.4943 8.16244 80.2048 8.82433 77.9476 9.08385C77.8762 10.5505 77.847 12.0694 77.9064 13.4364C78.0914 17.7216 78.8187 18.5595 80.1455 18.5595C81.5377 18.5595 82.5677 17.7256 83.6702 16.8675L85 19.3954V19.3964ZM72.9533 21.5209C72.9533 18.993 71.9373 16.7036 70.2927 15.0388C70.3419 14.6515 70.3661 14.2582 70.3661 13.8619C70.3661 9.51538 67.7035 6.36791 62.1237 6.44335C59.3373 6.48057 57.2984 7.45831 56.2854 8.06789L57.5629 10.4961C58.4592 9.99721 59.6653 9.51639 61.2476 9.34438C64.7833 8.95912 66.605 10.9558 66.7861 12.8168C62.0965 11.1701 55.7895 13.7221 55.7895 17.7437C55.7895 20.526 58.1021 22.058 61.6962 22.058C65.2903 22.058 67.8181 20.52 69.161 18.3271C69.1831 18.2909 69.2033 18.2547 69.2254 18.2175C69.8068 19.1821 70.1418 20.3118 70.1418 21.5199H72.9533V21.5209ZM61.7153 19.1912C60.2437 19.1912 59.278 18.5846 59.278 17.6572C59.278 15.1515 64.0872 14.1124 66.6523 15.5689C66.3676 17.5697 64.7149 19.1902 61.7153 19.1902V19.1912ZM20.8745 6.47655L17.4947 7.40399C17.4947 7.40399 18.5972 10.1672 18.5972 13.0692C18.5972 13.0692 18.906 19.2646 14.9136 19.2646C14.2386 19.2646 13.8272 19.0785 13.8272 19.0785C13.8272 19.0785 15.8299 17.2025 15.8299 13.0692C15.8299 8.93598 12.8052 7.88783 10.9835 7.88783C9.16178 7.88783 6.13703 8.93699 6.13703 13.0692C6.13703 17.2015 8.13978 19.0785 8.13978 19.0785C8.13978 19.0785 7.72837 19.2646 7.05341 19.2646C3.06097 19.2646 3.36978 13.0692 3.36978 13.0692C3.36978 10.1662 4.47225 7.40399 4.47225 7.40399L1.09241 6.47655C1.09241 6.47655 0 9.57976 0 13.0692C0 16.9943 1.2775 22.058 6.9166 22.058C9.04711 22.058 10.9845 21.2 10.9845 21.2C10.9845 21.2 12.9209 22.058 15.0524 22.058C20.6925 22.058 21.969 16.9943 21.969 13.0692C21.969 9.57876 20.8745 6.47554 20.8745 6.47554V6.47655ZM10.9845 17.7457C10.9845 17.7457 9.04812 16.6935 9.04812 13.0703C9.04812 11.6972 9.91923 10.8351 10.9845 10.8351C12.0497 10.8351 12.9209 11.6962 12.9209 13.0703C12.9209 16.6935 10.9845 17.7457 10.9845 17.7457Z" fill="black"/>
</svg>
