<?xml version="1.0" encoding="utf-8"?>
<!-- Generator: Adobe Illustrator 24.2.0, SVG Export Plug-In . SVG Version: 6.00 Build 0)  -->
<svg version="1.1" id="Layer_1" xmlns="http://www.w3.org/2000/svg" xmlns:xlink="http://www.w3.org/1999/xlink" x="0px" y="0px"
	 viewBox="0 0 85 20.2" style="enable-background:new 0 0 85 20.2;" xml:space="preserve">
<path d="M32.5,17.1c-3.2,0.3-4.8-1.5-5.1-3c4.5,0.9,10.8-0.9,10.8-5.2c0-2.8-2.3-4.3-5.9-4.3c-5.8,0-8.7,3.9-8.7,8.2
	s2.7,7.5,8.2,7.4c3.7-0.1,6.1-1.8,6.5-2.1L37,15.4C36.1,16,34.7,16.9,32.5,17.1z M32.3,7.4c1.5,0,2.4,0.6,2.4,1.5
	c0,2.9-5.2,3.1-7.4,2.4C27.5,9.3,29.1,7.4,32.3,7.4z M48.4,17.1c-3.2,0.3-4.8-1.5-5.1-3c4.5,0.9,10.8-0.9,10.8-5.2
	c0-2.8-2.3-4.3-5.9-4.3c-5.8,0-8.7,3.9-8.7,8.2s2.7,7.5,8.2,7.4c3.7-0.1,6.1-1.8,6.5-2.1l-1.4-2.7C52,16,50.6,16.9,48.4,17.1z
	 M48.2,7.4c1.5,0,2.4,0.6,2.4,1.5c0,2.9-5.2,3.1-7.4,2.4C43.4,9.3,45,7.4,48.2,7.4z M85,17.5c-1.6,1.4-3.8,2.7-5.7,2.7
	c-3.3,0-4.8-3.2-4.8-8.8c0-1.3,0-2.7,0.1-3.9c-1.7,0-2.7-0.1-2.7-0.1V4.5c0,0,1.1,0.1,2.9,0.1C75,1.9,75.3,0,75.3,0l3.3,0.3
	c0,0-0.2,1.7-0.4,4c1.8-0.2,3.6-0.8,3.6-0.8l0.7,2.7c0,0-2.3,0.7-4.5,0.9c-0.1,1.5-0.1,3,0,4.4c0.2,4.3,0.9,5.1,2.2,5.1
	c1.4,0,2.4-0.8,3.5-1.7L85,17.5L85,17.5z M73,19.6c0-2.5-1-4.8-2.7-6.5c0-0.4,0.1-0.8,0.1-1.2c0-4.3-2.7-7.5-8.2-7.4
	c-2.8,0-4.8,1-5.8,1.6l1.3,2.4c0.9-0.5,2.1-1,3.7-1.2c3.5-0.4,5.4,1.6,5.5,3.5c-4.7-1.6-11,0.9-11,4.9c0,2.8,2.3,4.3,5.9,4.3
	c3.6,0,6.1-1.5,7.5-3.7c0,0,0-0.1,0.1-0.1c0.6,1,0.9,2.1,0.9,3.3L73,19.6L73,19.6z M61.7,17.3c-1.5,0-2.4-0.6-2.4-1.5
	c0-2.5,4.8-3.5,7.4-2.1C66.4,15.7,64.7,17.3,61.7,17.3L61.7,17.3z M20.9,4.6l-3.4,0.9c0,0,1.1,2.8,1.1,5.7c0,0,0.3,6.2-3.7,6.2
	c-0.7,0-1.1-0.2-1.1-0.2s2-1.9,2-6S12.8,6,11,6s-4.8,1-4.8,5.2c0,4.1,2,6,2,6s-0.4,0.2-1.1,0.2c-4,0-3.7-6.2-3.7-6.2
	c0-2.9,1.1-5.7,1.1-5.7L1.1,4.6c0,0-1.1,3.1-1.1,6.6c0,3.9,1.3,9,6.9,9c2.1,0,4.1-0.9,4.1-0.9s1.9,0.9,4.1,0.9c5.6,0,6.9-5.1,6.9-9
	C22,7.7,20.9,4.6,20.9,4.6L20.9,4.6z M11,15.8c0,0-1.9-1.1-1.9-4.7c0-1.4,0.9-2.2,1.9-2.2c1.1,0,1.9,0.9,1.9,2.2
	C12.9,14.8,11,15.8,11,15.8z"/>
</svg>
