<?xml version="1.0" encoding="utf-8"?>
<!-- Generator: Adobe Illustrator 24.2.0, SVG Export Plug-In . SVG Version: 6.00 Build 0)  -->
<svg version="1.1" id="Layer_1" xmlns="http://www.w3.org/2000/svg" xmlns:xlink="http://www.w3.org/1999/xlink" x="0px" y="0px"
	 viewBox="0 0 386.1 66" style="enable-background:new 0 0 386.1 66;" xml:space="preserve">
<style type="text/css">
	.st0{enable-background:new    ;}
	.st1{fill:none;stroke:#F7F6F1;stroke-width:2;stroke-miterlimit:10;}
</style>
<text transform="matrix(1 0 0 1 0 298.1277)" style="font-family:'GmarketSansTTFMedium'; font-size:70px;">Quokka-In</text>
<g class="st0">
	<path class="st1" d="M37.7,6.5c3.3,1.4,5.9,3.4,7.8,6s3.1,5.5,3.3,8.7h-7.6c-0.4-3.1-1.9-5.6-4.6-7.6c-2.6-2-6.1-2.9-10.3-2.9
		c-4.3,0-7.7,0.8-10.1,2.4c-2.5,1.6-3.7,3.7-3.7,6.3c0,1.9,0.6,3.5,1.8,4.8s3,2.4,5.4,3.3s5.8,1.8,10,2.7c6.8,1.4,11.7,3.5,14.7,6.2
		c3.1,2.7,4.6,6.1,4.6,10.4c0,3.3-1,6.1-2.9,8.6s-4.6,4.3-8.1,5.7c-3.4,1.3-7.2,2-11.3,2c-4.3,0-8.2-0.7-11.7-2.2
		c-3.4-1.5-6.2-3.6-8.2-6.3c-2.1-2.7-3.2-5.9-3.4-9.5H11c0.4,3.5,2,6.3,4.9,8.4s6.7,3.2,11.3,3.2c2.8,0,5.2-0.4,7.4-1.2
		s3.9-1.9,5.1-3.4c1.2-1.4,1.8-3.1,1.8-4.9c0-2.1-0.6-3.8-1.8-5.1c-1.2-1.4-3-2.5-5.4-3.5c-2.5-1-5.8-1.9-10.1-2.8
		c-6.5-1.4-11.4-3.3-14.5-5.9S5,23.8,5,19.3c0-3,0.9-5.7,2.8-7.9c1.8-2.3,4.4-4,7.7-5.2s7-1.8,11.1-1.8C30.7,4.4,34.4,5.1,37.7,6.5z
		"/>
	<path class="st1" d="M97.2,5.7v6.5H64.7v17.6h30v6.5h-30v18.9h33.1v6.5H57.3v-56H97.2z"/>
	<path class="st1" d="M117.4,59.3c-4.5-2.5-8-6-10.6-10.5s-3.9-9.5-3.9-15c0-5.6,1.3-10.6,3.8-15c2.5-4.5,6.1-8,10.6-10.5
		s9.6-3.8,15.2-3.8c5.6,0,10.7,1.3,15.2,3.8s8,6,10.6,10.5s3.9,9.5,3.9,15c0,5.6-1.3,10.6-3.8,15c-2.5,4.5-6.1,8-10.6,10.5
		s-9.6,3.8-15.2,3.8S121.9,61.8,117.4,59.3z M144,53.4c3.4-1.9,6-4.6,7.9-8.1c1.9-3.4,2.9-7.3,2.9-11.7s-1-8.2-2.9-11.7
		c-1.9-3.4-4.6-6.1-7.9-8c-3.4-1.9-7.2-2.9-11.4-2.9s-8,1-11.4,2.9s-6,4.6-7.9,8s-2.9,7.3-2.9,11.7s1,8.2,2.9,11.7
		c1.9,3.4,4.6,6.1,8,8.1c3.4,1.9,7.2,2.9,11.4,2.9C136.8,56.3,140.6,55.4,144,53.4z"/>
	<path class="st1" d="M218,5.7v56.1h-7.4V36.5h-32.5v25.3h-7.4V5.7h7.4v24h32.5v-24C210.6,5.7,218,5.7,218,5.7z"/>
	<path class="st1" d="M268.9,5.7v6.5h-32.5v17.6h30v6.5h-30v18.9h33.1v6.5H229v-56H268.9z"/>
	<path class="st1" d="M317.9,5.7v6.5h-32.5v17.6h30v6.5h-30v18.9h33.1v6.5H278v-56H317.9z"/>
	<path class="st1" d="M329.3,18.4c-1.6,2-3.7,3.3-6.3,3.8v-3.9c3.1-0.8,4.7-3.1,4.7-6.7h-4V3.5h8v7.7
		C331.7,14,330.9,16.4,329.3,18.4z"/>
	<path class="st1" d="M371.1,6.5c3.3,1.4,5.9,3.4,7.8,6s3.1,5.5,3.3,8.7h-7.6c-0.4-3.1-1.9-5.6-4.6-7.6s-6.1-2.9-10.3-2.9
		c-4.3,0-7.7,0.8-10.1,2.4s-3.7,3.7-3.7,6.3c0,1.9,0.6,3.5,1.8,4.8c1.2,1.3,3,2.4,5.4,3.3c2.5,0.9,5.8,1.8,10,2.7
		c6.8,1.4,11.7,3.5,14.7,6.2c3.1,2.7,4.6,6.1,4.6,10.4c0,3.3-1,6.1-2.9,8.6s-4.6,4.3-8,5.7c-3.4,1.3-7.2,2-11.3,2
		c-4.3,0-8.2-0.7-11.7-2.2c-3.4-1.5-6.2-3.6-8.2-6.3c-2.1-2.7-3.2-5.9-3.4-9.5h7.6c0.4,3.5,2,6.3,4.9,8.4s6.7,3.2,11.3,3.2
		c2.8,0,5.2-0.4,7.4-1.2c2.2-0.8,3.9-1.9,5.1-3.4c1.2-1.4,1.8-3.1,1.8-4.9c0-2.1-0.6-3.8-1.8-5.1c-1.2-1.4-3-2.5-5.4-3.5
		c-2.5-1-5.8-1.9-10.1-2.8c-6.5-1.4-11.4-3.3-14.5-5.9s-4.7-6.1-4.7-10.6c0-3,0.9-5.7,2.8-7.9c1.8-2.3,4.4-4,7.7-5.2
		c3.3-1.2,7-1.8,11.1-1.8C364.1,4.4,367.8,5.1,371.1,6.5z"/>
</g>
</svg>
